<svg height='100px' width='100px'  fill="#000000" xmlns="http://www.w3.org/2000/svg" xmlns:xlink="http://www.w3.org/1999/xlink" version="1.1" x="0px" y="0px" viewBox="0 0 90 90" style="enable-background:new 0 0 90 90;" xml:space="preserve"><g><path d="M69.0410156,13.2299805H20.9589844c-0.5522461,0-1,0.4477539-1,1v31.2250977c0,0.5522461,0.4477539,1,1,1h48.0820313   c0.5522461,0,1-0.4477539,1-1V14.2299805C70.0410156,13.6777344,69.5932617,13.2299805,69.0410156,13.2299805z    M68.0410156,44.4550781H21.9589844V15.2299805h46.0820313V44.4550781z"></path><rect x="42.8125" y="47.1557617" width="4.375" height="2"></rect><path d="M81.5522461,75.2094727l-7.5424805-13.003418c-0.1791992-0.3081055-0.5087891-0.4980469-0.8652344-0.4980469H53.3774414   v-3.8766479c3.9316406-1.0455933,7.2843018-2.8190918,9.5237427-5.1233521h10.2433472c0.5522461,0,1-0.4477539,1-1V10.487793   c0-0.5522461-0.4477539-1-1-1H16.8554688c-0.5522461,0-1,0.4477539-1,1v41.2202148c0,0.5522461,0.4477539,1,1,1h10.2433472   c2.2394409,2.3042603,5.5921021,4.0777588,9.5237427,5.1233521v3.8766479H16.8554688   c-0.3564453,0-0.6860352,0.1899414-0.8652344,0.4980469l-7.5424805,13.003418   c-0.1791992,0.3095703-0.1796875,0.6914063-0.0014648,1.0009766c0.0245972,0.0426636,0.0584106,0.0772095,0.0884399,0.1151733   l-0.006897,0.0054321l3,3.8007813c0.1899414,0.2402344,0.4790039,0.3803711,0.7851563,0.3803711h65.3740234   c0.3061523,0,0.5952148-0.1401367,0.7851563-0.3803711l3-3.8007813l-0.006897-0.0054321   c0.0300293-0.0379639,0.0638428-0.0724487,0.0884399-0.1151733C81.7319336,75.9008789,81.7314453,75.519043,81.5522461,75.2094727z    M54.0701294,63.7080078l0.3496704,1.7880859H46v-1.7880859H54.0701294z M44,65.4960938h-8.4197998l0.3496704-1.7880859H44   V65.4960938z M33.5422363,65.4960938h-9.453186l0.7630615-1.7880859h9.0397949L33.5422363,65.4960938z M23.2355347,67.4960938   h9.9155884l-0.3495483,1.7875977H22.4726563L23.2355347,67.4960938z M35.1890869,67.4960938H44v1.7875977h-9.1604614   L35.1890869,67.4960938z M46,67.4960938h8.8109131l0.3495483,1.7875977H46V67.4960938z M57.1984253,69.2836914   l-0.3495483-1.7875977h9.9155884l0.7628784,1.7875977H57.1984253z M56.4577637,65.4960938l-0.3496704-1.7880859h9.0397949   l0.7630615,1.7880859H56.4577637z M17.8554688,11.487793h54.2890625v39.2202148H17.8554688V11.487793z M59.8657837,52.7080078   C56.3234863,55.3292847,50.8876953,56.8989258,45,56.8989258s-11.3234863-1.5696411-14.8657837-4.190918H59.8657837z    M38.6225586,58.2880249C40.6537476,58.6833496,42.7991333,58.8989258,45,58.8989258s4.3462524-0.2155762,6.3774414-0.6109009   v3.4199829H38.6225586V58.2880249z M17.4316406,63.7080078h5.2456665l-2.6382446,6.1831055   c-0.1318359,0.309082-0.0996094,0.6635742,0.0854492,0.9438477s0.4985352,0.4487305,0.8344727,0.4487305h48.0820313   c0.3359375,0,0.6494141-0.168457,0.8344727-0.4487305s0.2172852-0.6347656,0.0854492-0.9438477l-2.6382446-6.1831055h5.2456665   l6.3828125,11.003418H11.0488281L17.4316406,63.7080078z M77.2021484,78.512207H12.7978516l-1.4213257-1.8007813h67.2469482   L77.2021484,78.512207z"></path></g></svg>