<svg height='100px' width='100px'  fill="#000000" xmlns="http://www.w3.org/2000/svg" xmlns:xlink="http://www.w3.org/1999/xlink" version="1.1" x="0px" y="0px" viewBox="0 0 90 90" style="enable-background:new 0 0 90 90;" xml:space="preserve"><path d="M84.9907227,62.1240234h-5.6533203V22.265625c0-2.5410156-2.0673828-4.6083984-4.6083984-4.6083984H15.2709961  c-2.5410156,0-4.6083984,2.0673828-4.6083984,4.6083984v39.8583984H5.0092773c-0.5522461,0-1,0.4472656-1,1  c0,5.0830078,4.1357422,9.21875,9.2197266,9.21875h63.5419922c5.0839844,0,9.2197266-4.1357422,9.2197266-9.21875  C85.9907227,62.5712891,85.5429688,62.1240234,84.9907227,62.1240234z M12.6625977,22.265625  c0-1.4384766,1.1699219-2.6083984,2.6083984-2.6083984h59.4580078c1.4384766,0,2.6083984,1.1699219,2.6083984,2.6083984v39.8583984  h-3.5180664V23.2070313c0-0.5527344-0.4477539-1-1-1H17.1806641c-0.5522461,0-1,0.4472656-1,1v38.9169922h-3.5180664V22.265625z   M18.1806641,62.1240234V24.2070313h53.6386719v37.9169922H18.1806641z M49.7431641,64.1240234v2.109375h-9.4863281v-2.109375  H49.7431641z M76.7709961,70.3427734H13.2290039c-3.6416016,0-6.6625977-2.7099609-7.1508789-6.21875h32.1787109v3.109375  c0,0.5527344,0.4477539,1,1,1h11.4863281c0.5522461,0,1-0.4472656,1-1v-3.109375H83.921875  C83.4335938,67.6328125,80.4125977,70.3427734,76.7709961,70.3427734z"></path></svg>